<svg width="22" height="22" viewBox="0 0 22 22" fill="none" xmlns="http://www.w3.org/2000/svg">
<path d="M11 3.6665C11.7043 3.66645 12.387 3.90962 12.9326 4.35498C13.4782 4.8004 13.8532 5.42073 13.9941 6.11084H17.1104C17.2724 6.11084 17.4284 6.17504 17.543 6.28955C17.6576 6.40416 17.7217 6.56009 17.7217 6.72217C17.7217 6.88409 17.6574 7.03925 17.543 7.15381C17.4284 7.26841 17.2724 7.3335 17.1104 7.3335H16.7012L15.4795 16.2251C15.3984 16.8093 15.1078 17.3445 14.6631 17.7319C14.2184 18.1192 13.6483 18.3332 13.0586 18.3335H8.91602C8.32624 18.3332 7.75625 18.1193 7.31152 17.7319C6.86684 17.3445 6.57725 16.8093 6.49609 16.2251L5.27344 7.3335H4.88867C4.7266 7.3335 4.57066 7.26841 4.45605 7.15381C4.34169 7.03926 4.27736 6.88405 4.27734 6.72217C4.27734 6.56009 4.34145 6.40416 4.45605 6.28955C4.57066 6.17498 4.72662 6.11084 4.88867 6.11084H8.00488C8.14576 5.42077 8.52084 4.8004 9.06641 4.35498C9.61208 3.90954 10.2956 3.66636 11 3.6665ZM7.69336 16.0571C7.73422 16.3511 7.88083 16.62 8.10547 16.814C8.33041 17.008 8.61898 17.1137 8.91602 17.1108H13.0586C13.3556 17.1137 13.6442 17.008 13.8691 16.814C14.0938 16.62 14.2404 16.3511 14.2812 16.0571L15.4551 7.3335H6.47168L7.69336 16.0571ZM9.43555 9.1665C9.51568 9.16161 9.59597 9.17258 9.67188 9.19873C9.74776 9.22488 9.81784 9.26565 9.87793 9.31885C9.938 9.37212 9.98736 9.43708 10.0225 9.50928C10.0575 9.58158 10.0783 9.6605 10.083 9.74072L10.3887 14.6294C10.3936 14.7097 10.3827 14.7907 10.3564 14.8667C10.3302 14.9427 10.2887 15.0126 10.2354 15.0728C10.182 15.1329 10.1173 15.1822 10.0449 15.2173C9.97275 15.2523 9.89451 15.2731 9.81445 15.2778H9.77734C9.62143 15.2781 9.47103 15.2186 9.35742 15.1118C9.244 15.0051 9.17547 14.859 9.16602 14.7036L8.86035 9.81396C8.85545 9.73387 8.86646 9.65351 8.89258 9.57764C8.91877 9.50164 8.96036 9.43174 9.01367 9.37158C9.06704 9.3114 9.13173 9.26216 9.2041 9.22705C9.27645 9.19196 9.35527 9.17118 9.43555 9.1665ZM12.5645 9.1665C12.6445 9.17122 12.7227 9.19206 12.7949 9.22705C12.8673 9.26216 12.932 9.3114 12.9854 9.37158C13.0387 9.43175 13.0802 9.50161 13.1064 9.57764C13.1326 9.65353 13.1436 9.73386 13.1387 9.81396L12.833 14.7036C12.8236 14.8591 12.7551 15.0051 12.6416 15.1118C12.528 15.2186 12.3776 15.2781 12.2217 15.2778H12.1855C12.1053 15.2732 12.0264 15.2524 11.9541 15.2173C11.8817 15.1822 11.817 15.1329 11.7637 15.0728C11.7103 15.0126 11.6688 14.9427 11.6426 14.8667C11.6164 14.7907 11.6054 14.7097 11.6104 14.6294L11.916 9.74072C11.9207 9.6605 11.9415 9.58158 11.9766 9.50928C12.0117 9.43705 12.061 9.37213 12.1211 9.31885C12.1812 9.26564 12.2513 9.22489 12.3271 9.19873C12.4032 9.17252 12.4842 9.16154 12.5645 9.1665ZM11 4.88916C10.6212 4.88959 10.2515 5.00722 9.94238 5.22607C9.63337 5.44489 9.39969 5.75387 9.27344 6.11084H12.7256C12.5993 5.75385 12.3657 5.44488 12.0566 5.22607C11.7476 5.00729 11.3786 4.88967 11 4.88916Z" fill="#1F1A17" fill-opacity="0.36"/>
</svg>
