<svg width="22" height="22" viewBox="0 0 22 22" fill="none" xmlns="http://www.w3.org/2000/svg">
<path d="M7.02922 8.25C7.10952 8.25074 7.18889 8.26731 7.26278 8.29877C7.33668 8.33023 7.40365 8.37595 7.45986 8.43333L10.9997 12.0053L14.5395 8.43333C14.6539 8.31951 14.8088 8.25563 14.9701 8.25563C15.1315 8.25563 15.2863 8.31951 15.4008 8.43333C15.4585 8.4902 15.5043 8.55798 15.5356 8.63273C15.5669 8.70748 15.583 8.78771 15.583 8.86875C15.583 8.94979 15.5669 9.03002 15.5356 9.10477C15.5043 9.17952 15.4585 9.2473 15.4008 9.30417L10.9997 13.75L6.59857 9.30417C6.54086 9.2473 6.49502 9.17952 6.46374 9.10477C6.43245 9.03002 6.41634 8.94979 6.41634 8.86875C6.41634 8.78771 6.43245 8.70748 6.46374 8.63273C6.49502 8.55797 6.54086 8.4902 6.59857 8.43333C6.65478 8.37595 6.72175 8.33023 6.79565 8.29877C6.86954 8.26731 6.94891 8.25074 7.02922 8.25Z" fill="#1F1A17" fill-opacity="0.36"/>
</svg>
