<svg width="24" height="24" viewBox="0 0 24 24" fill="none" xmlns="http://www.w3.org/2000/svg">
<path d="M16.843 15.9041C18.3063 14.751 19.313 13.2381 19.6663 12.0018C18.9997 9.66905 15.9997 6.33659 11.9997 6.33659C10.695 6.34156 9.41406 6.68612 8.28301 7.33633L5.80301 4.86032C5.6781 4.73618 5.50913 4.6665 5.33301 4.6665C5.15688 4.6665 4.98791 4.73618 4.86301 4.86032C4.73884 4.98519 4.66915 5.15411 4.66915 5.33019C4.66915 5.50627 4.73884 5.67519 4.86301 5.80007L7.153 8.0928C5.693 9.24583 4.68634 10.7588 4.33301 11.9951C4.99967 14.3278 7.99967 17.6603 11.9997 17.6603C13.3044 17.6553 14.5853 17.3108 15.7163 16.6605L18.1963 19.1366C18.3208 19.2617 18.4898 19.3324 18.6663 19.3332C18.8429 19.3324 19.0119 19.2617 19.1363 19.1366C19.2605 19.0117 19.3302 18.8428 19.3302 18.6667C19.3302 18.4906 19.2605 18.3217 19.1363 18.1968L16.843 15.9041ZM11.9997 7.66957C15.0463 7.66957 17.513 10.1123 18.2597 12.0018C17.7421 13.1747 16.9247 14.1907 15.8897 14.9477L14.7797 13.8379C15.1417 13.2941 15.3343 12.6551 15.333 12.0018C15.333 11.1179 14.9818 10.2703 14.3567 9.64536C13.7316 9.02041 12.8837 8.66931 11.9997 8.66931C11.3462 8.66803 10.707 8.86054 10.163 9.2225L9.27301 8.33273C10.1185 7.90433 11.0518 7.67736 11.9997 7.66957V7.66957ZM10.1963 11.142L12.863 13.808C12.5933 13.936 12.2983 14.0021 11.9997 14.0012C11.4692 14.0012 10.9605 13.7906 10.5855 13.4156C10.2104 13.0406 9.99967 12.5321 9.99967 12.0018C10.0004 11.7041 10.0676 11.4104 10.1963 11.142V11.142ZM11.1397 10.1989C11.4081 10.0702 11.7019 10.003 11.9997 10.0023C12.5301 10.0023 13.0388 10.213 13.4139 10.5879C13.789 10.9629 13.9997 11.4715 13.9997 12.0018C13.9989 12.2994 13.9318 12.5932 13.803 12.8615L11.1397 10.1989ZM11.9997 16.334C8.95301 16.334 6.48634 13.8913 5.73967 12.0018C6.25728 10.8288 7.07467 9.8128 8.10967 9.05588L9.21968 10.1656C8.85762 10.7095 8.66506 11.3485 8.66634 12.0018C8.66634 12.8856 9.01753 13.7332 9.64265 14.3582C10.2678 14.9831 11.1156 15.3342 11.9997 15.3342C12.6532 15.3355 13.2923 15.143 13.8363 14.781L14.7263 15.6708C13.8808 16.0992 12.9476 16.3262 11.9997 16.334Z" fill="#555555"/>
</svg>
