<svg width="24" height="24" viewBox="0 0 24 24" fill="none" xmlns="http://www.w3.org/2000/svg">
<path d="M17.2834 10.8166L4.89341 4.54994C4.54284 4.37004 4.14631 4.2996 3.75523 4.34774C3.36415 4.39589 2.99655 4.56039 2.70008 4.81994C2.40105 5.07109 2.18341 5.40544 2.0748 5.78054C1.96619 6.15563 1.97151 6.55454 2.09007 6.92661L3.42341 11.9999L2.09007 17.0733C1.97544 17.4472 1.97297 17.8466 2.08295 18.2219C2.19294 18.5972 2.41056 18.9321 2.70889 19.185C3.00722 19.4379 3.37317 19.5978 3.76144 19.6449C4.14971 19.692 4.54327 19.6242 4.89341 19.4499L17.2934 13.1733C17.5044 13.0586 17.6806 12.889 17.8032 12.6825C17.9258 12.476 17.9904 12.2401 17.9901 11.9999C17.9912 11.757 17.926 11.5184 17.8015 11.3099C17.677 11.1013 17.4978 10.9308 17.2834 10.8166V10.8166ZM4.28341 18.2599C4.166 18.3178 4.03417 18.3397 3.90436 18.3231C3.77455 18.3065 3.65249 18.2521 3.55341 18.1666C3.45233 18.083 3.37908 17.9706 3.34336 17.8444C3.30763 17.7182 3.31114 17.5841 3.35341 17.4599C3.35496 17.4489 3.35496 17.4377 3.35341 17.4266L4.62007 12.6666H9.32341C9.50022 12.6666 9.66979 12.5964 9.79481 12.4713C9.91984 12.3463 9.99007 12.1768 9.99007 11.9999C9.99007 11.8231 9.91984 11.6536 9.79481 11.5285C9.66979 11.4035 9.50022 11.3333 9.32341 11.3333H4.62007L3.3734 6.57328C3.37496 6.56222 3.37496 6.551 3.3734 6.53994C3.33114 6.41577 3.32763 6.28168 3.36335 6.15546C3.39908 6.02925 3.47233 5.91688 3.57341 5.83328C3.67219 5.74846 3.79364 5.69443 3.92277 5.67784C4.05191 5.66126 4.18307 5.68284 4.30007 5.73994L16.6834 11.9999L4.28341 18.2599Z" fill="#1F1A17" fill-opacity="0.6"/>
</svg>
