<svg width="24" height="24" viewBox="0 0 24 24" fill="none" xmlns="http://www.w3.org/2000/svg">
<path d="M12 4C10.4178 4 8.87104 4.46919 7.55544 5.34824C6.23985 6.22729 5.21447 7.47672 4.60897 8.93853C4.00347 10.4003 3.84504 12.0089 4.15372 13.5607C4.4624 15.1126 5.22433 16.538 6.34315 17.6569C7.46197 18.7757 8.88743 19.5376 10.4393 19.8463C11.9911 20.155 13.5997 19.9965 15.0615 19.391C16.5233 18.7855 17.7727 17.7602 18.6518 16.4446C19.5308 15.129 20 13.5823 20 12C20 9.87827 19.1571 7.84344 17.6569 6.34314C16.1566 4.84285 14.1217 4 12 4ZM12 18.6667C10.6815 18.6667 9.39253 18.2757 8.2962 17.5431C7.19987 16.8106 6.34539 15.7694 5.84081 14.5512C5.33622 13.333 5.2042 11.9926 5.46144 10.6994C5.71867 9.40619 6.35361 8.2183 7.28596 7.28595C8.21831 6.3536 9.4062 5.71867 10.6994 5.46143C11.9926 5.2042 13.3331 5.33622 14.5512 5.84081C15.7694 6.34539 16.8106 7.19987 17.5431 8.2962C18.2757 9.39253 18.6667 10.6815 18.6667 12C18.6667 12.8755 18.4942 13.7424 18.1592 14.5512C17.8242 15.3601 17.3331 16.095 16.714 16.714C16.095 17.3331 15.3601 17.8242 14.5512 18.1592C13.7424 18.4942 12.8755 18.6667 12 18.6667V18.6667Z" fill="white"/>
<path d="M14.8632 9.52976L10.8866 13.5031L9.27323 11.7764C9.21445 11.7088 9.14266 11.6538 9.06214 11.6146C8.98162 11.5754 8.89402 11.5528 8.80457 11.5481C8.71512 11.5435 8.62566 11.557 8.54153 11.5877C8.45739 11.6184 8.38031 11.6658 8.31489 11.7269C8.24946 11.7881 8.19703 11.8618 8.16073 11.9437C8.12443 12.0256 8.105 12.1139 8.1036 12.2035C8.1022 12.2931 8.11886 12.382 8.15258 12.4649C8.18631 12.5479 8.23641 12.6232 8.29989 12.6864L10.1732 14.6864C10.2611 14.7811 10.3673 14.8571 10.4853 14.9098C10.6033 14.9625 10.7307 14.9908 10.8599 14.9931H10.8766C11.127 14.9879 11.3657 14.8865 11.5432 14.7098L15.7866 10.4631C15.8958 10.3356 15.9528 10.1715 15.9464 10.0037C15.9399 9.83594 15.8703 9.67679 15.7516 9.55806C15.6329 9.43933 15.4737 9.36977 15.3059 9.36329C15.1381 9.35681 14.9741 9.41388 14.8466 9.5231L14.8632 9.52976Z" fill="white"/>
</svg>
