<svg width="22" height="22" viewBox="0 0 22 22" fill="none" xmlns="http://www.w3.org/2000/svg">
<path d="M12.8338 7.34134H6.46904L8.96543 5.0453C9.08699 4.93638 9.16027 4.78367 9.16915 4.62077C9.17803 4.45787 9.12179 4.29811 9.01279 4.17665C8.9038 4.05518 8.75098 3.98195 8.58795 3.97308C8.42492 3.9642 8.26505 4.02041 8.14349 4.12932L3.97266 7.95199L8.14043 11.7624C8.2601 11.8711 8.41797 11.9279 8.57947 11.9204C8.74097 11.913 8.89294 11.8419 9.0021 11.7228C9.05639 11.6635 9.09844 11.5941 9.12583 11.5185C9.15323 11.443 9.16543 11.3628 9.16174 11.2825C9.15805 11.2022 9.13854 11.1235 9.10433 11.0507C9.07012 10.978 9.02188 10.9127 8.96238 10.8587L6.46904 8.56264H12.8338C15.0643 8.56264 16.806 10.3732 16.806 12.6845C16.806 14.9958 15.0643 16.8064 12.8338 16.8064H10.6949C10.5328 16.8064 10.3774 16.8708 10.2628 16.9853C10.1482 17.0998 10.0838 17.2551 10.0838 17.4171C10.0838 17.579 10.1482 17.7343 10.2628 17.8489C10.3774 17.9634 10.5328 18.0277 10.6949 18.0277H12.8338C15.7488 18.0277 18.0282 15.6798 18.0282 12.6845C18.0282 9.68929 15.7488 7.34134 12.8338 7.34134Z" fill="#1F1A17" fill-opacity="0.36"/>
</svg>
